<?xml version="1.0" encoding="UTF-8" standalone="no"?>
<svg
   xmlns:dc="http://purl.org/dc/elements/1.1/"
   xmlns:cc="http://creativecommons.org/ns#"
   xmlns:rdf="http://www.w3.org/1999/02/22-rdf-syntax-ns#"
   xmlns:svg="http://www.w3.org/2000/svg"
   xmlns="http://www.w3.org/2000/svg"
   xmlns:sodipodi="http://sodipodi.sourceforge.net/DTD/sodipodi-0.dtd"
   xmlns:inkscape="http://www.inkscape.org/namespaces/inkscape"
   height="679.00531"
   width="3664.6694"
   viewBox="0 0 3664.6695 679.00531"
   id="svg4167"
   version="1.1"
   inkscape:version="0.91 r"
   sodipodi:docname="jsday-canarias-header-logo.svg">
  <sodipodi:namedview
     pagecolor="#ffffff"
     bordercolor="#666666"
     borderopacity="1"
     objecttolerance="10"
     gridtolerance="10"
     guidetolerance="10"
     inkscape:pageopacity="0"
     inkscape:pageshadow="2"
     inkscape:window-width="1920"
     inkscape:window-height="1027"
     id="namedview17"
     showgrid="false"
     inkscape:zoom="0.2320874"
     inkscape:cx="1138.2105"
     inkscape:cy="-381.25753"
     inkscape:window-x="0"
     inkscape:window-y="0"
     inkscape:window-maximized="1"
     inkscape:current-layer="svg4167"
     fit-margin-top="0"
     fit-margin-left="0"
     fit-margin-right="0"
     fit-margin-bottom="0" />
  <metadata
     id="metadata4177">
    <rdf:RDF>
      <cc:Work
         rdf:about="">
        <dc:format>image/svg+xml</dc:format>
        <dc:type
           rdf:resource="http://purl.org/dc/dcmitype/StillImage" />
        <dc:title></dc:title>
      </cc:Work>
    </rdf:RDF>
  </metadata>
  <defs
     id="defs4175" />
  <g
     transform="translate(2125.7466,4.4928945)"
     id="layer1"
     style="display:inline;fill:none;stroke:#FFBF00;stroke-width:3;stroke-miterlimit:4;stroke-dasharray:none;stroke-opacity:1">
    <rect
       y="0.50710547"
       x="-2120.7466"
       style="fill:none;stroke:#FFBF00;stroke-width:10;stroke-miterlimit:4;stroke-dasharray:none;stroke-opacity:1"
       width="630"
       height="630"
       id="rect4169" />
    <path
       d="m -1699.5465,492.69711 c 12.6901,20.72 29.2001,35.95 58.4001,35.95 24.53,0 40.2,-12.26 40.2,-29.2 0,-20.3 -16.1,-27.49 -43.1,-39.3 l -14.8,-6.35 c -42.7201,-18.2 -71.1001,-41 -71.1001,-89.2 0,-44.4 33.8301,-78.2 86.7001,-78.2 37.64,0 64.7,13.1 84.2,47.4 l -46.1001,29.6 c -10.15,-18.2 -21.1,-25.37 -38.0999,-25.37 -17.3401,0 -28.3301,11 -28.3301,25.37 0,17.76 11,24.95 36.4,35.95 l 14.8,6.34 c 50.3001,21.57 78.7001,43.56 78.7001,93 0,53.3 -41.87,82.5 -98.1001,82.5 -54.98,0 -90.5,-26.2 -107.88,-60.54 z m -209.13,5.13 c 9.3001,16.5 17.76,30.45 38.1,30.45 19.4501,0 31.72,-7.61 31.72,-37.2 l 0,-201.3 59.2,0 0,202.1 c 0,61.3 -35.9399,89.2 -88.3999,89.2 -47.4,0 -74.85,-24.53 -88.81,-54.075 z"
       id="path4171"
       inkscape:connector-curvature="0"
       style="fill:#FFBF00;fill-opacity:1;stroke:none;stroke-width:3;stroke-miterlimit:4;stroke-dasharray:none;stroke-opacity:1" />
  </g>
  <g
     id="flowRoot4179-3"
     style="font-style:normal;font-weight:normal;font-size:40px;line-height:125%;font-family:sans-serif;letter-spacing:0px;word-spacing:0px;display:inline;fill:#ffffff;fill-opacity:1;stroke:none;stroke-width:1px;stroke-linecap:butt;stroke-linejoin:miter;stroke-opacity:1"
     transform="matrix(7.0576999,0,0,7.0576999,-393.91577,11.373794)">
    <g
       transform="matrix(1.9535329,0,0,1.9535329,-35.936354,-38.405743)"
       style="font-style:normal;font-weight:normal;font-size:5.66756868px;line-height:125%;font-family:sans-serif;letter-spacing:0px;word-spacing:0px;fill:#ffffff;fill-opacity:1;stroke:none;stroke-width:1px;stroke-linecap:butt;stroke-linejoin:miter;stroke-opacity:1"
       id="flowRoot4164-6">
      <path
         d="m 115.46545,50.734695 q 0,2.205038 -0.74386,4.144409 -0.74387,1.912805 -2.07221,3.373975 -1.32834,1.434603 -3.18801,2.284739 -1.8331,0.823568 -4.01157,0.823568 l -8.87329,0 0,-21.253383 8.87329,0 q 2.17847,0 4.01157,0.850136 1.85967,0.850135 3.18801,2.284738 1.32834,1.434604 2.07221,3.373975 0.74386,1.939371 0.74386,4.117843 z m -4.17097,-0.106267 q 0.0266,-1.487737 -0.45164,-2.816073 -0.4782,-1.328337 -1.38147,-2.311306 -0.90327,-1.009535 -2.2316,-1.567437 -1.30177,-0.584468 -2.94891,-0.584468 l -3.58651,0 0,14.505434 3.58651,0 q 1.62057,0 2.89577,-0.531335 1.30177,-0.557901 2.20504,-1.514303 0.90327,-0.982969 1.38147,-2.284739 0.50477,-1.328336 0.53134,-2.895773 z"
         style="font-style:normal;font-variant:normal;font-weight:500;font-stretch:normal;font-size:26.56672859px;font-family:'Keep Calm';-inkscape-font-specification:'Keep Calm Medium';fill:#ffffff;fill-opacity:1"
         id="path4230"
         inkscape:connector-curvature="0" />
      <path
         d="m 130.584,61.361386 -3.85218,0 0,-0.823568 q -1.00953,0.690735 -2.1519,0.956402 -1.11581,0.265667 -2.31131,0.265667 -1.1158,0 -2.01907,-0.345367 -0.90327,-0.318801 -1.56744,-0.929836 -0.66416,-0.637601 -1.0361,-1.487737 -0.34537,-0.850135 -0.34537,-1.886237 0,-1.30177 0.5579,-2.258172 0.58447,-0.982969 1.56744,-1.620571 0.98297,-0.664168 2.28474,-0.982969 1.32834,-0.3188 2.84264,-0.3188 l 2.20504,0 q 0,-1.354904 -0.8767,-2.151905 -0.87671,-0.797002 -2.52384,-0.797002 -0.797,0 -1.64714,0.292234 -0.85013,0.292234 -1.70027,1.062669 l -2.25817,-2.284739 q 1.22207,-1.168936 2.81607,-1.806537 1.62057,-0.637602 3.32084,-0.637602 1.59401,0 2.84264,0.504768 1.24864,0.504768 2.01907,1.30177 1.00954,1.009535 1.40804,2.258172 0.42507,1.248636 0.42507,3.188007 l 0,8.501353 z m -3.85218,-3.825609 0,-2.84264 -1.7534,0 q -0.797,0 -1.51431,0.106267 -0.69073,0.106267 -1.22207,0.371934 -0.50476,0.239101 -0.82356,0.637602 -0.29224,0.398501 -0.29224,0.956402 0,0.797002 0.61104,1.30177 0.6376,0.504768 1.62057,0.504768 0.85013,0 1.6737,-0.265668 0.85014,-0.265667 1.70027,-0.770435 z"
         style="font-style:normal;font-variant:normal;font-weight:500;font-stretch:normal;font-size:26.56672859px;font-family:'Keep Calm';-inkscape-font-specification:'Keep Calm Medium';fill:#ffffff;fill-opacity:1"
         id="path4232"
         inkscape:connector-curvature="0" />
      <path
         d="m 147.45595,45.97925 -6.90735,18.251343 q -0.77044,2.045638 -2.01907,2.948907 -1.24864,0.903269 -2.97548,0.903269 -0.26567,0 -0.58447,-0.05313 -0.3188,-0.02657 -0.61103,-0.106267 l -1.2752,-3.559941 q 0.45163,0.212533 0.92983,0.3188 0.4782,0.132834 0.90327,0.132834 0.90327,0 1.64714,-0.425068 0.74387,-0.398501 1.14237,-1.514303 l 0.53133,-1.540871 -5.92438,-15.355569 4.17098,0 3.53337,9.882823 3.32084,-9.882823 4.11785,0 z"
         style="font-style:normal;font-variant:normal;font-weight:500;font-stretch:normal;font-size:26.56672859px;font-family:'Keep Calm';-inkscape-font-specification:'Keep Calm Medium';fill:#ffffff;fill-opacity:1"
         id="path4234"
         inkscape:connector-curvature="0" />
      <path
         d="m 177.5108,57.535777 q -1.594,1.939371 -3.87874,3.081741 -2.25817,1.142369 -4.99455,1.142369 -2.36443,0 -4.43664,-0.850135 -2.0722,-0.876702 -3.61307,-2.364439 -1.54088,-1.487737 -2.44414,-3.480241 -0.87671,-2.019072 -0.87671,-4.330377 0,-2.311306 0.87671,-4.30381 0.90326,-2.019072 2.44414,-3.506808 1.54087,-1.514304 3.61307,-2.364439 2.07221,-0.850136 4.43664,-0.850136 2.73638,0 4.99455,1.14237 2.28474,1.142369 3.79904,2.975473 l -2.84264,2.92234 q -0.98297,-1.408036 -2.5504,-2.258171 -1.54088,-0.876703 -3.40055,-0.876703 -1.48773,0 -2.81607,0.584469 -1.30177,0.557901 -2.28474,1.54087 -0.98297,0.956402 -1.56743,2.258172 -0.55791,1.275203 -0.55791,2.736373 0,1.434603 0.55791,2.736373 0.58446,1.275203 1.56743,2.258172 0.98297,0.956402 2.28474,1.54087 1.32834,0.557901 2.81607,0.557901 1.96594,0 3.48025,-0.876702 1.5143,-0.903269 2.52383,-2.364439 l 2.86921,2.948907 z"
         style="font-style:normal;font-variant:normal;font-weight:500;font-stretch:normal;font-size:26.56672859px;font-family:'Keep Calm';-inkscape-font-specification:'Keep Calm Medium';fill:#ffffff;fill-opacity:1"
         id="path4236"
         inkscape:connector-curvature="0" />
      <path
         d="m 201.08877,61.361386 -4.51634,0 -1.96594,-4.250676 -10.30789,0 -1.9925,4.250676 -4.51635,0 10.04223,-21.253383 3.21457,0 10.04222,21.253383 z m -8.10285,-7.677784 -3.53337,-7.651218 -3.58651,7.651218 7.11988,0 z"
         style="font-style:normal;font-variant:normal;font-weight:500;font-stretch:normal;font-size:26.56672859px;font-family:'Keep Calm';-inkscape-font-specification:'Keep Calm Medium';fill:#ffffff;fill-opacity:1"
         id="path4238"
         inkscape:connector-curvature="0" />
      <path
         d="m 220.87351,61.361386 -4.03814,0 -9.59059,-14.903935 0,14.903935 -4.03814,0 0,-21.253383 4.62261,0 9.00612,13.867833 0,-13.867833 4.03814,0 0,21.253383 z"
         style="font-style:normal;font-variant:normal;font-weight:500;font-stretch:normal;font-size:26.56672859px;font-family:'Keep Calm';-inkscape-font-specification:'Keep Calm Medium';fill:#ffffff;fill-opacity:1"
         id="path4240"
         inkscape:connector-curvature="0" />
      <path
         d="m 246.28335,61.361386 -4.51635,0 -1.96594,-4.250676 -10.30789,0 -1.9925,4.250676 -4.51634,0 10.04222,-21.253383 3.21457,0 10.04223,21.253383 z m -8.10286,-7.677784 -3.53337,-7.651218 -3.58651,7.651218 7.11988,0 z"
         style="font-style:normal;font-variant:normal;font-weight:500;font-stretch:normal;font-size:26.56672859px;font-family:'Keep Calm';-inkscape-font-specification:'Keep Calm Medium';fill:#ffffff;fill-opacity:1"
         id="path4242"
         inkscape:connector-curvature="0" />
      <path
         d="m 264.39439,61.361386 -4.54291,0 -1.51431,-4.835144 q -0.2391,-0.797002 -0.61103,-1.46117 -0.34537,-0.664169 -0.85014,-1.14237 -0.50476,-0.478201 -1.22207,-0.743868 -0.69073,-0.265668 -1.64713,-0.265668 l -1.54087,0 0,8.44822 -4.06471,0 0,-21.226816 8.39508,-0.02657 q 1.35491,0 2.52384,0.478201 1.16894,0.451635 2.01907,1.275203 0.85014,0.823569 1.32834,1.939372 0.4782,1.115802 0.4782,2.417572 0,0.929835 -0.29223,1.806537 -0.29224,0.876702 -0.82357,1.620571 -0.53134,0.743868 -1.2752,1.328336 -0.71731,0.557902 -1.59401,0.850136 1.00954,0.371934 1.64714,1.089235 0.6376,0.690735 1.00954,1.673704 0.18596,0.451635 0.34536,0.903269 0.1594,0.451635 0.3188,0.956402 0.18597,0.478202 0.37194,1.06267 0.21253,0.557901 0.45163,1.248636 0.29224,0.876702 0.53134,1.514303 0.26566,0.611035 0.5579,1.089236 z m -5.39305,-14.850801 q 0,-0.743869 -0.29223,-1.354903 -0.26567,-0.611035 -0.74387,-1.062669 -0.4782,-0.451635 -1.14237,-0.690735 -0.6376,-0.265668 -1.38147,-0.265668 l -2.97547,0 0,6.615116 2.97547,0 q 0.74387,0 1.38147,-0.212534 0.66417,-0.239101 1.14237,-0.664168 0.4782,-0.425068 0.74387,-1.009536 0.29223,-0.611035 0.29223,-1.354903 z"
         style="font-style:normal;font-variant:normal;font-weight:500;font-stretch:normal;font-size:26.56672859px;font-family:'Keep Calm';-inkscape-font-specification:'Keep Calm Medium';fill:#ffffff;fill-opacity:1"
         id="path4244"
         inkscape:connector-curvature="0" />
      <path
         d="m 271.04312,61.361386 -4.11784,0 0,-21.226816 4.11784,0 0,21.226816 z"
         style="font-style:normal;font-variant:normal;font-weight:500;font-stretch:normal;font-size:26.56672859px;font-family:'Keep Calm';-inkscape-font-specification:'Keep Calm Medium';fill:#ffffff;fill-opacity:1"
         id="path4246"
         inkscape:connector-curvature="0" />
      <path
         d="m 296.45917,61.361386 -4.51634,0 -1.96594,-4.250676 -10.30789,0 -1.9925,4.250676 -4.51635,0 10.04223,-21.253383 3.21457,0 10.04222,21.253383 z m -8.10285,-7.677784 -3.53337,-7.651218 -3.58651,7.651218 7.11988,0 z"
         style="font-style:normal;font-variant:normal;font-weight:500;font-stretch:normal;font-size:26.56672859px;font-family:'Keep Calm';-inkscape-font-specification:'Keep Calm Medium';fill:#ffffff;fill-opacity:1"
         id="path4248"
         inkscape:connector-curvature="0" />
      <path
         d="m 312.76368,55.782373 q 0,1.195503 -0.53134,2.284739 -0.50477,1.062669 -1.4346,1.886238 -0.92984,0.823568 -2.20504,1.328336 -1.2752,0.478201 -2.81607,0.478201 -1.38147,0 -2.49727,-0.1594 -1.08924,-0.159401 -2.07221,-0.504768 -0.9564,-0.345368 -1.85967,-0.876702 -0.8767,-0.557901 -1.8331,-1.328337 l 2.92234,-2.948906 q 1.2752,1.062669 2.49727,1.514303 1.22207,0.425068 2.65667,0.425068 0.58447,0 1.08924,-0.159401 0.53133,-0.185967 0.90327,-0.478201 0.3985,-0.292234 0.61103,-0.690735 0.2391,-0.398501 0.2391,-0.876702 0,-0.504768 -0.18597,-0.903269 -0.18596,-0.3985 -0.66416,-0.770435 -0.47821,-0.371934 -1.32834,-0.743868 -0.85014,-0.398501 -2.17847,-0.876702 -1.16894,-0.425068 -2.25817,-0.956402 -1.06267,-0.557902 -1.88624,-1.328337 -0.797,-0.770435 -1.30177,-1.806537 -0.4782,-1.036103 -0.4782,-2.444139 0,-1.354903 0.53133,-2.497273 0.5579,-1.142369 1.48774,-1.939371 0.9564,-0.823569 2.20504,-1.275203 1.2752,-0.451634 2.73637,-0.451634 2.44414,0 4.11784,0.637601 1.67371,0.637602 2.97548,1.859671 l -2.86921,2.895774 q -0.797,-0.770436 -1.77997,-1.168937 -0.98297,-0.425067 -2.31131,-0.425067 -0.61103,0 -1.14237,0.185967 -0.50476,0.185967 -0.8767,0.504768 -0.37193,0.292234 -0.61103,0.717301 -0.21254,0.398501 -0.21254,0.850136 0,0.504768 0.21254,0.929835 0.21253,0.398501 0.7173,0.797002 0.50477,0.371934 1.32834,0.770435 0.85013,0.371934 2.09877,0.823569 1.594,0.557901 2.73637,1.222069 1.14237,0.664169 1.85967,1.46117 0.7173,0.797002 1.06267,1.806538 0.34537,0.982969 0.34537,2.231605 z"
         style="font-style:normal;font-variant:normal;font-weight:500;font-stretch:normal;font-size:26.56672859px;font-family:'Keep Calm';-inkscape-font-specification:'Keep Calm Medium';fill:#ffffff;fill-opacity:1"
         id="path4250"
         inkscape:connector-curvature="0" />
    </g>
  </g>
  <g
     transform="translate(-366.41043,316.42122)"
     style="font-style:normal;font-weight:normal;font-size:212.11437988px;line-height:125%;font-family:sans-serif;letter-spacing:0px;word-spacing:0px;display:inline;fill:#FFBF00;fill-opacity:1;stroke:none;stroke-width:1px;stroke-linecap:butt;stroke-linejoin:miter;stroke-opacity:1"
     id="flowRoot4170">
    <path
       d="m 1175.1336,-85.718941 -124.7232,0 65.3312,-77.421749 q 3.818,-4.66652 7.6361,-9.54515 4.0302,-5.09074 7.2119,-10.3936 3.1817,-5.30286 5.0907,-10.39361 1.9091,-5.30286 1.9091,-10.18149 0,-11.24206 -7.2119,-17.8176 -6.9998,-6.57555 -17.3934,-6.57555 -11.8784,0 -21.2114,6.15132 -9.3331,5.9392 -15.6965,15.48435 l -22.9084,-22.69624 q 11.2421,-14.21166 25.4538,-21.84778 14.2116,-7.63612 35.211,-7.63612 11.0299,0 21.2114,3.39383 10.3936,3.18172 18.4539,9.75726 8.0604,6.57555 12.939,16.33281 4.8787,9.75726 4.8787,22.48412 0,8.48458 -2.3333,16.1207 -2.3333,7.63611 -6.3634,14.848 -3.8181,6.99978 -9.121,13.99955 -5.3028,6.78766 -11.0299,13.99955 l -24.181,30.12024 56.8466,0 0,31.817159 z"
       style="font-style:normal;font-variant:normal;font-weight:500;font-stretch:normal;font-family:'Keep Calm';-inkscape-font-specification:'Keep Calm Medium';fill:#FFBF00;fill-opacity:1"
       id="path4179"
       inkscape:connector-curvature="0" />
    <path
       d="m 1339.3433,-168.65566 q 0,15.69646 -4.8786,31.18081 -4.8787,15.48435 -14.2117,27.78698 -9.333,12.090524 -22.9084,19.726642 -13.3632,7.424003 -30.3323,7.424003 -16.9692,0 -30.3324,-7.424003 -13.3632,-7.636118 -22.6962,-19.726642 -9.333,-12.30263 -14.4238,-27.78698 -4.8786,-15.48435 -4.8786,-31.18081 0,-16.33281 4.6665,-32.4535 4.6665,-16.1207 13.5753,-29.05967 9.1209,-12.93898 22.6963,-20.78721 13.5753,-8.06035 31.3929,-8.06035 17.8176,0 31.1808,8.06035 13.5753,8.06034 22.6962,20.99932 9.121,12.93898 13.7875,29.05967 4.6665,16.12069 4.6665,32.24139 z m -34.3625,0 q 0,-8.90881 -1.9091,-19.51453 -1.6969,-10.60572 -6.1513,-19.72663 -4.4544,-9.12092 -11.8784,-15.27224 -7.2119,-6.15132 -18.0297,-6.15132 -10.3936,0 -17.6055,6.36344 -7.2119,6.15131 -11.8784,15.48435 -4.4544,9.12091 -6.5756,19.72663 -1.909,10.60572 -1.909,19.0903 0,8.9088 2.1212,18.87818 2.1211,9.75726 6.5755,18.24183 4.6665,8.48458 11.8784,13.99955 7.2119,5.51498 17.3934,5.51498 10.1815,0 17.3934,-5.51498 7.2119,-5.51497 11.6663,-13.78743 4.6665,-8.48458 6.7876,-18.45395 2.1212,-9.96938 2.1212,-18.87818 z"
       style="font-style:normal;font-variant:normal;font-weight:500;font-stretch:normal;font-family:'Keep Calm';-inkscape-font-specification:'Keep Calm Medium';fill:#FFBF00;fill-opacity:1"
       id="path4181"
       inkscape:connector-curvature="0" />
    <path
       d="m 1418.8795,-85.718941 -32.6656,0 0,-132.995719 -27.5748,10.60572 0,-27.78698 60.2404,-22.48413 0,172.661109 z"
       style="font-style:normal;font-variant:normal;font-weight:500;font-stretch:normal;font-family:'Keep Calm';-inkscape-font-specification:'Keep Calm Medium';fill:#FFBF00;fill-opacity:1"
       id="path4183"
       inkscape:connector-curvature="0" />
    <path
       d="m 1579.7849,-133.23256 q 0,13.3632 -5.7271,23.12047 -5.515,9.54514 -14.848,15.69646 -9.1209,6.151317 -20.9993,9.120918 -11.6663,2.969601 -24.1811,2.969601 -12.5147,0 -24.3931,-2.969601 -11.8784,-2.969601 -21.2115,-9.120918 -9.1209,-6.15132 -14.6359,-15.69646 -5.5149,-9.75727 -5.5149,-23.12047 0,-6.36343 2.3332,-12.72686 2.3333,-6.36344 6.1513,-11.6663 4.0302,-5.51497 9.121,-9.54514 5.3028,-4.24229 11.0299,-6.36343 -5.0907,-2.54538 -9.5451,-6.36344 -4.2423,-3.81805 -7.6362,-8.69668 -3.1817,-4.87864 -5.0907,-10.39361 -1.6969,-5.72709 -1.6969,-11.66629 0,-11.66629 5.515,-20.5751 5.727,-9.12091 14.6359,-15.06012 8.9088,-6.15131 19.9387,-9.12091 11.03,-3.18172 21.6357,-3.18172 10.8178,0 21.4235,3.18172 10.8179,2.9696 19.5145,9.12091 8.6967,5.93921 13.9996,15.06012 5.515,8.90881 5.515,20.5751 0,5.9392 -1.9091,11.66629 -1.6969,5.51497 -5.0907,10.39361 -3.1817,4.87863 -7.6361,8.69668 -4.2423,3.81806 -9.3331,6.36344 5.7271,2.12114 10.8179,6.36343 5.3028,4.03017 9.1209,9.54514 4.0302,5.30286 6.3634,11.6663 2.3333,6.36343 2.3333,12.72686 z m -38.6048,-73.39158 q 0,-4.4544 -2.1212,-8.27246 -2.1211,-4.03017 -5.9392,-6.99977 -3.6059,-2.9696 -8.4846,-4.66652 -4.8786,-1.69691 -10.6057,-1.69691 -5.7271,0 -10.6057,1.69691 -4.8786,1.69692 -8.6967,4.66652 -3.6059,2.9696 -5.7271,6.99977 -2.1211,3.81806 -2.1211,8.27246 0,4.4544 2.1211,8.48458 2.1212,3.81806 5.7271,6.78766 3.8181,2.9696 8.6967,4.66651 4.8786,1.69692 10.6057,1.69692 5.7271,0 10.6057,-1.69692 4.8787,-1.69691 8.4846,-4.66651 3.8181,-2.9696 5.9392,-6.78766 2.1212,-4.03018 2.1212,-8.48458 z m 4.6665,69.57352 q 0,-5.09075 -2.5454,-9.33303 -2.5454,-4.45441 -6.7876,-7.84824 -4.2423,-3.39383 -10.1815,-5.30285 -5.7271,-1.90903 -12.3027,-1.90903 -6.5755,0 -12.5147,1.90903 -5.7271,1.90902 -9.9694,5.30285 -4.2423,3.39383 -6.7877,7.84824 -2.5453,4.24228 -2.5453,9.33303 0,5.09074 2.5453,9.54515 2.5454,4.4544 6.7877,7.84823 4.2423,3.39383 9.9694,5.30286 5.9392,1.90903 12.5147,1.90903 6.5756,0 12.3027,-1.90903 5.9392,-1.90903 10.1815,-5.30286 4.2422,-3.39383 6.7876,-7.84823 2.5454,-4.45441 2.5454,-9.54515 z"
       style="font-style:normal;font-variant:normal;font-weight:500;font-stretch:normal;font-family:'Keep Calm';-inkscape-font-specification:'Keep Calm Medium';fill:#FFBF00;fill-opacity:1"
       id="path4185"
       inkscape:connector-curvature="0" />
  </g>
</svg>
